<mxfile host="app.diagrams.net" agent="Mozilla/5.0 (Macintosh; Intel Mac OS X 10_15_7) AppleWebKit/537.36 (KHTML, like Gecko) Chrome/129.0.0.0 Safari/537.36" version="24.7.17" pages="2">
  <diagram name="Page-1" id="HEVRUNCFO4KjVIUrqRbU">
    <mxGraphModel dx="1242" dy="819" grid="1" gridSize="10" guides="1" tooltips="1" connect="1" arrows="1" fold="1" page="1" pageScale="1" pageWidth="827" pageHeight="1169" math="0" shadow="0">
      <root>
        <mxCell id="0" />
        <mxCell id="1" parent="0" />
        <mxCell id="2We5VWbd-vpqWEPwzzE8-1" value="" style="dashed=0;outlineConnect=0;html=1;align=center;labelPosition=center;verticalLabelPosition=bottom;verticalAlign=top;shape=mxgraph.weblogos.github" vertex="1" parent="1">
          <mxGeometry x="300" y="350" width="75" height="75" as="geometry" />
        </mxCell>
      </root>
    </mxGraphModel>
  </diagram>
  <diagram id="rFF8SfIGqnPyezE_I5rg" name="Page-2">
    <mxGraphModel dx="1307" dy="862" grid="1" gridSize="10" guides="1" tooltips="1" connect="1" arrows="1" fold="1" page="1" pageScale="1" pageWidth="827" pageHeight="1169" math="0" shadow="0">
      <root>
        <mxCell id="0" />
        <mxCell id="1" parent="0" />
        <mxCell id="wC8Sx5mPbXhXnmT8yc8--43" value="" style="rounded=1;whiteSpace=wrap;html=1;" parent="1" vertex="1">
          <mxGeometry x="1390" y="230" width="600" height="630" as="geometry" />
        </mxCell>
        <mxCell id="wC8Sx5mPbXhXnmT8yc8--2" value="Git Code Repository" style="rounded=0;whiteSpace=wrap;html=1;align=left;verticalAlign=top;fillColor=#647687;strokeColor=#314354;shadow=0;fontColor=#ffffff;" parent="1" vertex="1">
          <mxGeometry x="70" y="330" width="570" height="350" as="geometry" />
        </mxCell>
        <mxCell id="wC8Sx5mPbXhXnmT8yc8--3" style="edgeStyle=none;html=1;entryX=0;entryY=0.5;entryDx=0;entryDy=0;" parent="1" source="wC8Sx5mPbXhXnmT8yc8--7" target="wC8Sx5mPbXhXnmT8yc8--9" edge="1">
          <mxGeometry relative="1" as="geometry">
            <Array as="points">
              <mxPoint x="115" y="570" />
            </Array>
          </mxGeometry>
        </mxCell>
        <mxCell id="wC8Sx5mPbXhXnmT8yc8--4" value="Push" style="edgeLabel;html=1;align=center;verticalAlign=middle;resizable=0;points=[];" parent="wC8Sx5mPbXhXnmT8yc8--3" vertex="1" connectable="0">
          <mxGeometry x="-0.0154" y="-2" relative="1" as="geometry">
            <mxPoint as="offset" />
          </mxGeometry>
        </mxCell>
        <mxCell id="wC8Sx5mPbXhXnmT8yc8--5" style="edgeStyle=none;html=1;entryX=0;entryY=0.5;entryDx=0;entryDy=0;" parent="1" source="wC8Sx5mPbXhXnmT8yc8--7" target="wC8Sx5mPbXhXnmT8yc8--12" edge="1">
          <mxGeometry relative="1" as="geometry">
            <Array as="points">
              <mxPoint x="180" y="430" />
            </Array>
          </mxGeometry>
        </mxCell>
        <mxCell id="wC8Sx5mPbXhXnmT8yc8--6" value="Create" style="edgeLabel;html=1;align=center;verticalAlign=middle;resizable=0;points=[];" parent="wC8Sx5mPbXhXnmT8yc8--5" vertex="1" connectable="0">
          <mxGeometry x="0.0355" y="-3" relative="1" as="geometry">
            <mxPoint as="offset" />
          </mxGeometry>
        </mxCell>
        <mxCell id="wC8Sx5mPbXhXnmT8yc8--7" value="&lt;div style=&quot;text-align: justify;&quot;&gt;&lt;span style=&quot;background-color: initial;&quot;&gt;Developer&lt;/span&gt;&lt;/div&gt;&lt;div style=&quot;text-align: justify;&quot;&gt;&lt;span style=&quot;background-color: initial;&quot;&gt;DevOps&lt;/span&gt;&lt;/div&gt;" style="shape=umlActor;verticalLabelPosition=bottom;verticalAlign=top;html=1;outlineConnect=0;align=center;" parent="1" vertex="1">
          <mxGeometry x="100" y="450" width="30" height="60" as="geometry" />
        </mxCell>
        <mxCell id="wC8Sx5mPbXhXnmT8yc8--8" value="" style="edgeStyle=none;html=1;" parent="1" source="wC8Sx5mPbXhXnmT8yc8--9" target="wC8Sx5mPbXhXnmT8yc8--13" edge="1">
          <mxGeometry relative="1" as="geometry" />
        </mxCell>
        <mxCell id="wC8Sx5mPbXhXnmT8yc8--9" value="&lt;br&gt;Main" style="whiteSpace=wrap;html=1;verticalAlign=top;fillColor=none;" parent="1" vertex="1">
          <mxGeometry x="260" y="540" width="120" height="60" as="geometry" />
        </mxCell>
        <mxCell id="wC8Sx5mPbXhXnmT8yc8--10" value="" style="edgeStyle=none;html=1;" parent="1" source="wC8Sx5mPbXhXnmT8yc8--12" target="wC8Sx5mPbXhXnmT8yc8--9" edge="1">
          <mxGeometry relative="1" as="geometry" />
        </mxCell>
        <mxCell id="wC8Sx5mPbXhXnmT8yc8--11" value="Merge" style="edgeLabel;html=1;align=center;verticalAlign=middle;resizable=0;points=[];labelBackgroundColor=default;labelBorderColor=none;fontColor=default;" parent="wC8Sx5mPbXhXnmT8yc8--10" vertex="1" connectable="0">
          <mxGeometry y="-2" relative="1" as="geometry">
            <mxPoint as="offset" />
          </mxGeometry>
        </mxCell>
        <mxCell id="wC8Sx5mPbXhXnmT8yc8--12" value="&lt;br&gt;Pull Request" style="whiteSpace=wrap;html=1;verticalAlign=top;fillColor=none;" parent="1" vertex="1">
          <mxGeometry x="260" y="400" width="120" height="60" as="geometry" />
        </mxCell>
        <mxCell id="wC8Sx5mPbXhXnmT8yc8--13" value="&lt;br&gt;GitHub Actions" style="whiteSpace=wrap;html=1;verticalAlign=top;fillColor=none;" parent="1" vertex="1">
          <mxGeometry x="470" y="470" width="120" height="60" as="geometry" />
        </mxCell>
        <mxCell id="wC8Sx5mPbXhXnmT8yc8--14" value="" style="whiteSpace=wrap;html=1;align=left;verticalAlign=top;fillColor=#6d8764;strokeColor=#3A5431;rounded=0;shadow=0;fontColor=#ffffff;" parent="1" vertex="1">
          <mxGeometry x="720" y="330" width="540" height="350" as="geometry" />
        </mxCell>
        <mxCell id="wC8Sx5mPbXhXnmT8yc8--17" value="Installation" style="rounded=1;whiteSpace=wrap;html=1;shadow=0;fillColor=none;" parent="1" vertex="1">
          <mxGeometry x="1100" y="470" width="130" height="60" as="geometry" />
        </mxCell>
        <mxCell id="wC8Sx5mPbXhXnmT8yc8--21" style="edgeStyle=none;html=1;labelBackgroundColor=#FFFFFF;entryX=0;entryY=0.5;entryDx=0;entryDy=0;" parent="1" source="wC8Sx5mPbXhXnmT8yc8--35" target="wC8Sx5mPbXhXnmT8yc8--42" edge="1">
          <mxGeometry relative="1" as="geometry" />
        </mxCell>
        <mxCell id="wC8Sx5mPbXhXnmT8yc8--25" value="" style="strokeColor=#666666;shadow=1;strokeWidth=1;rounded=1;absoluteArcSize=1;arcSize=2;fillColor=#f5f5f5;fontColor=#333333;" parent="1" vertex="1">
          <mxGeometry x="1460" y="740" width="150" height="60" as="geometry" />
        </mxCell>
        <mxCell id="wC8Sx5mPbXhXnmT8yc8--26" value="BigQuery" style="editableCssRules=.*;fontColor=#999999;shape=image;verticalLabelPosition=middle;labelBackgroundColor=#ffffff;verticalAlign=middle;labelPosition=right;align=left;spacingLeft=20;part=1;points=[];imageAspect=0;image=data:image/svg+xml,PHN2ZyB4bWxucz0iaHR0cDovL3d3dy53My5vcmcvMjAwMC9zdmciIHhtbG5zOnY9Imh0dHBzOi8vdmVjdGEuaW8vbmFubyIgd2lkdGg9IjIwLjAwMTA0NTIyNzA1MDc4IiBoZWlnaHQ9IjIwLjAwMTA0NTIyNzA1MDc4IiBmaWxsLXJ1bGU9ImV2ZW5vZGQiIHZpZXdCb3g9IjAgMCAyMC4wMDEwNDUyMjcwNTA3OCAyMC4wMDEwNDUyMjcwNTA3OCI+JiN4YTsJPHN0eWxlIHR5cGU9InRleHQvY3NzIj4mI3hhOwkuc3Qwe2ZpbGw6I2FlY2JmYTt9JiN4YTsJLnN0MXtmaWxsOiM2NjlkZjY7fSYjeGE7CS5zdDJ7ZmlsbDojNDI4NWY0O30mI3hhOwk8L3N0eWxlPiYjeGE7CTxwYXRoIGNsYXNzPSJzdDAiIGQ9Ik00LjczIDguODN2Mi42M2E0LjkxIDQuOTEgMCAwIDAgMS43MSAxLjc0VjguODN6Ii8+JiN4YTsJPHBhdGggY2xhc3M9InN0MSIgZD0iTTcuODkgNi40MXY3LjUzQTcuNjIgNy42MiAwIDAgMCA5IDE0YTggOCAwIDAgMCAxIDBWNi40MXoiLz4mI3hhOwk8cGF0aCBjbGFzcz0ic3QwIiBkPSJNMTEuNjQgOS44NnYzLjI5YTUgNSAwIDAgMCAxLjctMS44MlY5Ljg2eiIvPiYjeGE7CTxwYXRoIGNsYXNzPSJzdDIiIGQ9Ik0xNS43NCAxNC4zMmwtMS40MiAxLjQyYS40Mi40MiAwIDAgMCAwIC42bDMuNTQgMy41NGEuNDIuNDIgMCAwIDAgLjU5IDBsMS40My0xLjQzYS40Mi40MiAwIDAgMCAwLS41OWwtMy41NC0zLjU0YS40Mi40MiAwIDAgMC0uNiAwIi8+JiN4YTsJPHBhdGggY2xhc3M9InN0MSIgZD0iTTkgMGE5IDkgMCAxIDAgMCAxOEE5IDkgMCAxIDAgOSAwbTAgMTUuNjlhNi42OCA2LjY4IDAgMCAxIC4wMDctMTMuMzYgNi42OCA2LjY4IDAgMCAxIDQuNzI3IDExLjQwM0E2LjY4IDYuNjggMCAwIDEgOSAxNS42OSIvPiYjeGE7PC9zdmc+;shadow=0;" parent="wC8Sx5mPbXhXnmT8yc8--25" vertex="1">
          <mxGeometry width="30" height="30" relative="1" as="geometry">
            <mxPoint x="15" y="15" as="offset" />
          </mxGeometry>
        </mxCell>
        <mxCell id="wC8Sx5mPbXhXnmT8yc8--27" value="" style="strokeColor=#666666;shadow=1;strokeWidth=1;rounded=1;absoluteArcSize=1;arcSize=2;fillColor=#f5f5f5;fontColor=#333333;" parent="1" vertex="1">
          <mxGeometry x="1630" y="740" width="120" height="60" as="geometry" />
        </mxCell>
        <mxCell id="wC8Sx5mPbXhXnmT8yc8--28" value="Cloud&#xa;Storage" style="editableCssRules=.*;fontColor=#999999;shape=image;verticalLabelPosition=middle;labelBackgroundColor=#ffffff;verticalAlign=middle;labelPosition=right;align=left;spacingLeft=20;part=1;points=[];imageAspect=0;image=data:image/svg+xml,PHN2ZyB4bWxucz0iaHR0cDovL3d3dy53My5vcmcvMjAwMC9zdmciIHhtbG5zOnY9Imh0dHBzOi8vdmVjdGEuaW8vbmFubyIgd2lkdGg9IjIwIiBoZWlnaHQ9IjE2IiB2aWV3Qm94PSIwIDAgMjAgMTYiPiYjeGE7CTxzdHlsZSB0eXBlPSJ0ZXh0L2NzcyI+JiN4YTsJLnN0MHtmaWxsOiM0Mjg1ZjQ7fSYjeGE7CS5zdDF7ZmlsbDojNjY5ZGY2O30mI3hhOwkuc3Qye2ZpbGw6I2FlY2JmYTt9JiN4YTsJLnN0M3tmaWxsOiNmZmY7fSYjeGE7CTwvc3R5bGU+JiN4YTsJPHBhdGggY2xhc3M9InN0MiIgZD0iTTAgMGgyMHY3SDB6Ii8+JiN4YTsJPHBhdGggY2xhc3M9InN0MSIgZD0iTTE4IDBoMnY3aC0yeiIvPiYjeGE7CTxwYXRoIGNsYXNzPSJzdDAiIGQ9Ik0xOCA3bDItN2gtMnoiLz4mI3hhOwk8cGF0aCBjbGFzcz0ic3QxIiBkPSJNMCAwaDJ2N0gweiIvPiYjeGE7CTxnIGNsYXNzPSJzdDMiPiYjeGE7CQk8cGF0aCBkPSJNNCAzaDZ2MUg0eiIvPiYjeGE7CQk8cmVjdCB4PSIxMyIgeT0iMiIgd2lkdGg9IjMiIGhlaWdodD0iMyIgcng9IjEuNSIvPiYjeGE7CTwvZz4mI3hhOwk8cGF0aCBjbGFzcz0ic3QyIiBkPSJNMCA5aDIwdjdIMHoiLz4mI3hhOwk8cGF0aCBjbGFzcz0ic3QxIiBkPSJNMTggOWgydjdoLTJ6Ii8+JiN4YTsJPHBhdGggY2xhc3M9InN0MCIgZD0iTTE4IDE2bDItN2gtMnoiLz4mI3hhOwk8cGF0aCBjbGFzcz0ic3QxIiBkPSJNMCA5aDJ2N0gweiIvPiYjeGE7CTxnIGNsYXNzPSJzdDMiPiYjeGE7CQk8cGF0aCBkPSJNNCAxMmg2djFINHoiLz4mI3hhOwkJPHJlY3QgeD0iMTMiIHk9IjExIiB3aWR0aD0iMyIgaGVpZ2h0PSIzIiByeD0iMS41Ii8+JiN4YTsJPC9nPiYjeGE7PC9zdmc+;shadow=0;" parent="wC8Sx5mPbXhXnmT8yc8--27" vertex="1">
          <mxGeometry width="30" height="24" relative="1" as="geometry">
            <mxPoint x="15" y="18" as="offset" />
          </mxGeometry>
        </mxCell>
        <mxCell id="wC8Sx5mPbXhXnmT8yc8--31" style="edgeStyle=none;html=1;" parent="1" source="wC8Sx5mPbXhXnmT8yc8--32" target="wC8Sx5mPbXhXnmT8yc8--34" edge="1">
          <mxGeometry relative="1" as="geometry" />
        </mxCell>
        <mxCell id="wC8Sx5mPbXhXnmT8yc8--32" value="&lt;div style=&quot;text-align: justify;&quot;&gt;&lt;span style=&quot;background-color: initial;&quot;&gt;Developer&lt;/span&gt;&lt;/div&gt;&lt;div style=&quot;text-align: justify;&quot;&gt;&lt;span style=&quot;background-color: initial;&quot;&gt;DevOps&lt;/span&gt;&lt;/div&gt;" style="shape=umlActor;verticalLabelPosition=bottom;verticalAlign=top;html=1;outlineConnect=0;align=center;" parent="1" vertex="1">
          <mxGeometry x="300" y="230" width="30" height="60" as="geometry" />
        </mxCell>
        <mxCell id="wC8Sx5mPbXhXnmT8yc8--41" style="edgeStyle=orthogonalEdgeStyle;rounded=0;orthogonalLoop=1;jettySize=auto;html=1;entryX=0.5;entryY=0;entryDx=0;entryDy=0;" parent="1" source="wC8Sx5mPbXhXnmT8yc8--34" target="wC8Sx5mPbXhXnmT8yc8--14" edge="1">
          <mxGeometry relative="1" as="geometry" />
        </mxCell>
        <mxCell id="wC8Sx5mPbXhXnmT8yc8--34" value="" style="image;html=1;image=img/lib/clip_art/computers/Workstation_128x128.png;shadow=0;" parent="1" vertex="1">
          <mxGeometry x="440" y="220" width="80" height="80" as="geometry" />
        </mxCell>
        <mxCell id="wC8Sx5mPbXhXnmT8yc8--35" value="" style="shape=image;verticalLabelPosition=bottom;labelBackgroundColor=default;verticalAlign=top;aspect=fixed;imageAspect=0;image=https://datascientest.com/wp-content/uploads/2022/04/terraform-1.jpg;imageBackground=default;imageBorder=default;" parent="1" vertex="1">
          <mxGeometry x="750" y="562.64" width="170" height="67.35" as="geometry" />
        </mxCell>
        <mxCell id="wC8Sx5mPbXhXnmT8yc8--36" value="" style="shape=image;verticalLabelPosition=bottom;labelBackgroundColor=default;verticalAlign=top;aspect=fixed;imageAspect=0;image=https://logodownload.org/wp-content/uploads/2021/06/google-cloud-logo-1.png;imageBackground=#FFFFFF;imageBorder=none;fontColor=default;" parent="1" vertex="1">
          <mxGeometry x="1600" y="80" width="127.61" height="80" as="geometry" />
        </mxCell>
        <mxCell id="wC8Sx5mPbXhXnmT8yc8--38" style="edgeStyle=orthogonalEdgeStyle;rounded=0;orthogonalLoop=1;jettySize=auto;html=1;entryX=0;entryY=0.5;entryDx=0;entryDy=0;" parent="1" target="wC8Sx5mPbXhXnmT8yc8--17" edge="1">
          <mxGeometry relative="1" as="geometry">
            <mxPoint x="849.9999999999995" y="424.9473684210525" as="sourcePoint" />
          </mxGeometry>
        </mxCell>
        <mxCell id="wC8Sx5mPbXhXnmT8yc8--48" style="edgeStyle=orthogonalEdgeStyle;rounded=0;orthogonalLoop=1;jettySize=auto;html=1;entryX=0.5;entryY=1;entryDx=0;entryDy=0;" parent="1" source="wC8Sx5mPbXhXnmT8yc8--42" target="wC8Sx5mPbXhXnmT8yc8--45" edge="1">
          <mxGeometry relative="1" as="geometry" />
        </mxCell>
        <mxCell id="wC8Sx5mPbXhXnmT8yc8--54" style="edgeStyle=orthogonalEdgeStyle;rounded=0;orthogonalLoop=1;jettySize=auto;html=1;" parent="1" source="wC8Sx5mPbXhXnmT8yc8--42" target="wC8Sx5mPbXhXnmT8yc8--25" edge="1">
          <mxGeometry relative="1" as="geometry">
            <Array as="points">
              <mxPoint x="1340" y="596" />
              <mxPoint x="1340" y="640" />
              <mxPoint x="1535" y="640" />
            </Array>
          </mxGeometry>
        </mxCell>
        <mxCell id="wC8Sx5mPbXhXnmT8yc8--55" style="edgeStyle=orthogonalEdgeStyle;rounded=0;orthogonalLoop=1;jettySize=auto;html=1;" parent="1" source="wC8Sx5mPbXhXnmT8yc8--42" target="wC8Sx5mPbXhXnmT8yc8--27" edge="1">
          <mxGeometry relative="1" as="geometry">
            <Array as="points">
              <mxPoint x="1340" y="596" />
              <mxPoint x="1340" y="640" />
              <mxPoint x="1690" y="640" />
            </Array>
          </mxGeometry>
        </mxCell>
        <mxCell id="wC8Sx5mPbXhXnmT8yc8--91" style="edgeStyle=orthogonalEdgeStyle;rounded=0;orthogonalLoop=1;jettySize=auto;html=1;" parent="1" source="wC8Sx5mPbXhXnmT8yc8--42" target="wC8Sx5mPbXhXnmT8yc8--89" edge="1">
          <mxGeometry relative="1" as="geometry">
            <Array as="points">
              <mxPoint x="1340" y="596" />
              <mxPoint x="1340" y="640" />
              <mxPoint x="1855" y="640" />
            </Array>
          </mxGeometry>
        </mxCell>
        <mxCell id="wC8Sx5mPbXhXnmT8yc8--42" value="Provisionning" style="rounded=1;whiteSpace=wrap;html=1;shadow=0;fillColor=none;" parent="1" vertex="1">
          <mxGeometry x="1100" y="566.3199999999999" width="120" height="60" as="geometry" />
        </mxCell>
        <mxCell id="wC8Sx5mPbXhXnmT8yc8--45" value="" style="strokeColor=#dddddd;shadow=1;strokeWidth=1;rounded=1;absoluteArcSize=1;arcSize=2;" parent="1" vertex="1">
          <mxGeometry x="1460" y="260" width="460" height="180" as="geometry" />
        </mxCell>
        <mxCell id="wC8Sx5mPbXhXnmT8yc8--46" value="GKE" style="editableCssRules=.*;html=1;fontColor=#999999;shape=image;verticalLabelPosition=middle;verticalAlign=middle;labelPosition=right;align=left;spacingLeft=20;part=1;points=[];imageAspect=0;image=data:image/svg+xml,PHN2ZyB4bWxucz0iaHR0cDovL3d3dy53My5vcmcvMjAwMC9zdmciIHhtbG5zOnY9Imh0dHBzOi8vdmVjdGEuaW8vbmFubyIgd2lkdGg9IjQwMi4zNDMyMDA2ODM1OTM3NSIgaGVpZ2h0PSI0MTYuMDAyNTMyOTU4OTg0NCIgdmlld0JveD0iMCAwLjAwMDQ5OTk2Mzc2MDM3NTk3NjYgNDAyLjM0MzIwMDY4MzU5Mzc1IDQxNi4wMDI1MzI5NTg5ODQ0Ij4mI3hhOwk8c3R5bGUgdHlwZT0idGV4dC9jc3MiPiYjeGE7CS5zdDB7ZmlsbDojNDI4NWY0O30mI3hhOwkuc3Qxe2ZpbGw6IzY2OWRmNjt9JiN4YTsJLnN0MntmaWxsOiNhZWNiZmE7fSYjeGE7CTwvc3R5bGU+JiN4YTsJPHBhdGggY2xhc3M9InN0MiIgZD0iTTM2Ni4xNyA5Mi4wMDNjLTE5LjA1IDAtMzYgMTYuODItMzYgMzUuNzYgMCAxMi42MiA4LjQ2IDI1LjI0IDE5LjA1IDMxLjU1djE0Ny4zbC0xMTAuMDUgNjUuMjEgMTYuOTMgMjcuMzUgMTE4LjUxLTY5LjQyYzQuMjQtMi4xIDguNDctOC40MSA4LjQ3LTE0Ljczdi0xNTUuNjdjMTIuNzEtNi4zNSAxOS4wOS0xOC45MyAxOS4wOS0zMS41NSAyLjA4LTE4Ljk0LTE0Ljg1LTM1LjgtMzYtMzUuOHptLTM4LjExLTIzLjFMMjA5LjU1IDEuNTgzYy00LjI0LTIuMTEtMTAuNTktMi4xMS0xNi45MyAwTDU3LjE3IDc5LjQxM0EzNiAzNiAwIDAgMCAzNiA3My4xMDNjLTE5IDAtMzYgMTYuODMtMzYgMzUuNzZzMTYuOTMgMzUuNzcgMzYgMzUuNzcgMzYtMTYuODMgMzYtMzUuNzdsMTI5LjEtNzMuNjIgMTEwIDYzLjExem0tMTQzLjg5IDI3Ny42OHEtOS41MyAwLTE5IDYuMzFsLTExMC02My4xMXYtMTI2LjIyaC0zNHYxMzQuNjNjMCA2LjMyIDQuMjMgMTIuNjMgOC40NiAxNC43M2wxMTguNTQgNjUuMjF2Mi4xMWMwIDE4LjkzIDE2LjkzIDM1Ljc2IDM2IDM1Ljc2czM2LTE2LjgzIDM2LTM1Ljc2LTE3LTMzLjY2LTM2LTMzLjY2eiIvPiYjeGE7CTxwYXRoIGNsYXNzPSJzdDEiIGQ9Ik05Ny4zOCAxMzYuMjEzbDEwNS44MiA1OC45MSAxMDMuNy01OC45MS0xMDMuNy02MXptLTYuMzUgNjcuMzJsMTEyLjE3IDYzLjExdi01MC40OWwtMTEyLjE3LTY1LjIxem0wIDYzLjExbDExMi4xNyA2NS4yMXYtNDQuMTdsLTExMi4xNy02NS4yMnoiLz4mI3hhOwk8cGF0aCBjbGFzcz0ic3QwIiBkPSJNMjAzLjE3IDIxNi4xMjN2NTAuNTZsMTEyLjE2LTY1LjI5di01MC4zOXptOTItMjBhOC4xNiA4LjE2IDAgMSAxIDguMTYtOC4xNiA4LjE5IDguMTkgMCAwIDEtOC4xNiA4LjE2em0tOTIgOTEuNTJ2NDQuMTZsMTEyLjE2LTY1LjEydi00NC4xNnptOTItMjIuODhhOC4xNiA4LjE2IDAgMSAxIDguMTYtOC4xNiA4LjE5IDguMTkgMCAwIDEtOC4xNiA4LjE2eiIvPiYjeGE7PC9zdmc+;" parent="wC8Sx5mPbXhXnmT8yc8--45" vertex="1">
          <mxGeometry width="29" height="30" relative="1" as="geometry">
            <mxPoint x="15" y="15" as="offset" />
          </mxGeometry>
        </mxCell>
        <mxCell id="wC8Sx5mPbXhXnmT8yc8--50" value="" style="shape=image;verticalLabelPosition=bottom;labelBackgroundColor=default;verticalAlign=top;aspect=fixed;imageAspect=0;image=https://images.g2crowd.com/uploads/product/image/social_landscape/social_landscape_c4b932ba54c8a83e0ff6783750fc432f/airbyte.png;clipPath=inset(13.29% 27% 1.9% 27%);" parent="wC8Sx5mPbXhXnmT8yc8--45" vertex="1">
          <mxGeometry x="81.1764705882353" y="46.95652173913044" width="64.47913043478262" height="62.608695652173914" as="geometry" />
        </mxCell>
        <mxCell id="wC8Sx5mPbXhXnmT8yc8--51" value="" style="shape=image;verticalLabelPosition=bottom;labelBackgroundColor=default;verticalAlign=top;aspect=fixed;imageAspect=0;image=data:image/png,iVBORw0KGgoAAAANSUhEUgAAASwAAACoCAMAAABt9SM9AAABGlBMVEX///8sAFkmKC3m5uYAAAD5+fnu7u4UAE7Dv8ny8vLc3N4MAEshAFOAcZapUP/19fYhIylISk0AAAsQExvNiP8cHiSqq6zpwf8WGSCbnJ1wcXMNERn2LnZ9foA7PUFSU1ayVf+jTfg0NjqxsrPWj//AwMFgYWQhAE0bAEYrLTIAAEjAmtndtfQAADnQ0NGLjI6BOciMP9eGh4kRAFd1dniWi6hRO3O1rsGWc7KmgsHzyv80Dl/60P8AAEJOMHOUXcKGUrNAFm3AffFzQ59WLYBVII4yAmJIIXGwceB0MrgAADGhZ889DXFlKqOOGGXwLXXHJG5xEmH6oLv5iKv/3+m0IGv4YZP3AGhGCFyhHGjjssH3R4Tky9P04+h7mNQ9AAAGP0lEQVR4nO2ae3vTNhSHncR25zRLHDtOnahJSi5OUsDmErZRVgpspcAY6y5QBuP7f40d6dipkyYt5Rmr4Pm9fzSWbCn2+0hHR6kNAwAAAAAAAAAAAAAAAAAAAAAAAAAAAAAAAAAAAAAAAAAAAAAAAAAAAAAAAAAAAAAAVmCV7PI35xLbpavmqiVllIx7uxvnsvtd7crvURPse7uFC6gUrvge9ZF1oatCYfP7q71HbWSVNy+WVfmWr+UAYv+vWIbWsioba2RZpkeYZetT4W+8XBspSl9Zmz9cf1BZI6tIeJ9+6+0O0bYu1UZrWbv39/ZuFCqfRZYZEObl1ladZW3c39va2rrx4PPIku2/IlkPfiRXW3v3NyBrBQuyxoX963JkbT0cVyDrLHlZk4PGo5vS1sPHjSe5uPXfyvo6AvzkYNgYkq0b5KpBts6VVW4qWo4qxa2o14uSUb7nuNXu9XqdJl8fN5sDX7b3ZTNVVRs10064wSiRnXQGTr4XTWWNyVWDbO1vSld5WytklTzhE+ZAFkZ9LwxcNwi9oJn1G3OdG/hmZFM5MX3limxRM3lFy/R8hou+4E6El+TuT09ZlckTdjQZ/yStNYY/j9fKsgNXTSnlpmO6xQwv4m6bubrAK5OLsHiKtBOb+aLVFaenRXR6f1rKGh8+PVKyjp4e7j8jW8OD/cN1sqwiu1LzZ8aP6bIdXz1omU0EYaBOCeusrCjIF+v500XRmt+fjrImt3aqL48aw8bRy+rO8xfPhsODF7d3rnGUX5Zl9dWDeuqRRqo29Po071StHG1sIpwlkTLpt4zEC1MfYRhKWSIryOLI4yE4LXrFxSVTQ1ljclUlW7+QqyrZ2j94dPM2VV17ukpWnV1xaOnLESU6FJWdDpsx0nVPTdiBkIGrS+G+xYMrpIMku0QWZFHJDWRwK6u+xSC7P/1kVZ5LV9XqeFxRnzu/TiZKX/Xa5KysHo+gO6oylkMhaHNn6pm92LC9bLIZtWmXmKrTC6nDYkEuFzycWnIdCDrZ/Wksq1BIZVXG62S5PK58dmUk0pxIcwaVHNCcc9SVway0mFMtJKULBZlADHg0jUTOvo6ysmlIXtQ0vEXWxmumIcd2t562z8XpFDkqONoHnui2W6N53rReFlGLm2pOzgLdZXGAl9GcbO3cmqiq1QE+hSabou+ekUUP2vTSgsqbVKJlnCvLblPipqJ9kPXB6ChLpg68v6m8PBxnVatSh8yCy+2XVcnZR9WRyNcIftz1ssre4gDVXFZ+K7h8sEpWFrSmamT53immOtESIpgPOrevrl0vy5eXukI2D78EWeewJCvghMksy8qefEx/kP8vH8coa9CpB6YIc5N2raymHIfudBATKsH4UmTdJc6VFfYccTpcOvnV8Ax2fCfdPcvSWllqlUg7GWi/GuZcvfpt+/g8WW6PHkjFb1/mlrzSp2lRLJOqfmQM1CcnrZEaeirZX5FnsSy1SqRLRqT/ajj38vs2cXx3vSyVl/dUPDblofLmqRypNJW/M9DGbuTJtJ0DlZLFGXna3nEcY1FW152PPl5H1SKh0FnW3WMpa/siWTYPsq4hI7k8FPUkiTzeXjtGjZPS+igezfy5VvZTFEKYxqKsNu9xZq2knu7K662EjP7x519ay3r9UbI4JPOvA7yrdtMMiX+26ShFtLwJTpt6qoNptjwuy+J9NK0coVvkNdQNye+bk+2TD4a+sgpvpau/L5Rl1N1sxDjuwq8vHKnqfq4ucHmBTLLka1mW0Z2nWSLpslL6npPt7ZN3hsayKm9fH79aWg7nsigSuTyjjJIqBHLXY7XN9FldEWTrYscM03EUeFGWp3eFDGrUBx1zZ+kZpy94QHlto2kG6fe8J1n/GBrLkrnD0j+k57L6daJbrkmMVleVBhYdx7OiSYhe07FqjFHu9D1ZWWyPjLSuZjUj2ajet2qG6qxvpydqiezB69G1xiDi77E+vHn/TueYtZLsxRB++6DmKKxcqUafdklWOXO4zq7NG+QaWfPD3BmnZPO1pz3TH61eDPmYV4428MoRg5fZLsHHvCZpX/k9agJewAUAAAAAAAAAAAAAAAAAAAAAAAAAAAAAAAAAAAAAAAAAAAAAAAAAAAAAAAAAAAAAfPn8C1t4qgkKM1zzAAAAAElFTkSuQmCC;" parent="wC8Sx5mPbXhXnmT8yc8--45" vertex="1">
          <mxGeometry x="260" y="40" width="171.23" height="95.89" as="geometry" />
        </mxCell>
        <mxCell id="wC8Sx5mPbXhXnmT8yc8--52" style="edgeStyle=orthogonalEdgeStyle;rounded=0;orthogonalLoop=1;jettySize=auto;html=1;" parent="1" source="wC8Sx5mPbXhXnmT8yc8--17" target="wC8Sx5mPbXhXnmT8yc8--50" edge="1">
          <mxGeometry relative="1" as="geometry">
            <Array as="points">
              <mxPoint x="1420" y="500" />
              <mxPoint x="1420" y="430" />
              <mxPoint x="1572" y="430" />
            </Array>
          </mxGeometry>
        </mxCell>
        <mxCell id="wC8Sx5mPbXhXnmT8yc8--53" style="edgeStyle=orthogonalEdgeStyle;rounded=0;orthogonalLoop=1;jettySize=auto;html=1;" parent="1" source="wC8Sx5mPbXhXnmT8yc8--17" target="wC8Sx5mPbXhXnmT8yc8--51" edge="1">
          <mxGeometry relative="1" as="geometry">
            <Array as="points">
              <mxPoint x="1420" y="500" />
              <mxPoint x="1420" y="430" />
              <mxPoint x="1691" y="430" />
            </Array>
          </mxGeometry>
        </mxCell>
        <mxCell id="wC8Sx5mPbXhXnmT8yc8--57" value="Repo du client" style="dashed=0;outlineConnect=0;html=1;align=center;labelPosition=center;verticalLabelPosition=bottom;verticalAlign=top;shape=mxgraph.webicons.github;gradientColor=#DFDEDE" parent="1" vertex="1">
          <mxGeometry x="700" y="1253.26" width="102.4" height="102.4" as="geometry" />
        </mxCell>
        <mxCell id="wC8Sx5mPbXhXnmT8yc8--63" value="" style="rounded=1;whiteSpace=wrap;html=1;" parent="1" vertex="1">
          <mxGeometry x="920" y="1140" width="1000" height="360" as="geometry" />
        </mxCell>
        <mxCell id="wC8Sx5mPbXhXnmT8yc8--65" style="edgeStyle=orthogonalEdgeStyle;rounded=0;orthogonalLoop=1;jettySize=auto;html=1;" parent="1" source="wC8Sx5mPbXhXnmT8yc8--64" target="wC8Sx5mPbXhXnmT8yc8--57" edge="1">
          <mxGeometry relative="1" as="geometry" />
        </mxCell>
        <mxCell id="wC8Sx5mPbXhXnmT8yc8--71" style="edgeStyle=orthogonalEdgeStyle;rounded=0;orthogonalLoop=1;jettySize=auto;html=1;" parent="1" source="wC8Sx5mPbXhXnmT8yc8--64" target="wC8Sx5mPbXhXnmT8yc8--70" edge="1">
          <mxGeometry relative="1" as="geometry">
            <Array as="points">
              <mxPoint x="1231" y="1304" />
              <mxPoint x="1231" y="1411" />
            </Array>
          </mxGeometry>
        </mxCell>
        <mxCell id="wC8Sx5mPbXhXnmT8yc8--77" style="edgeStyle=orthogonalEdgeStyle;rounded=0;orthogonalLoop=1;jettySize=auto;html=1;" parent="1" source="wC8Sx5mPbXhXnmT8yc8--64" target="wC8Sx5mPbXhXnmT8yc8--68" edge="1">
          <mxGeometry relative="1" as="geometry">
            <Array as="points">
              <mxPoint x="1230" y="1304" />
              <mxPoint x="1230" y="1210" />
            </Array>
          </mxGeometry>
        </mxCell>
        <mxCell id="wC8Sx5mPbXhXnmT8yc8--87" value="Orchestration" style="edgeLabel;html=1;align=center;verticalAlign=middle;resizable=0;points=[];" parent="wC8Sx5mPbXhXnmT8yc8--77" vertex="1" connectable="0">
          <mxGeometry x="-0.6097" y="-1" relative="1" as="geometry">
            <mxPoint as="offset" />
          </mxGeometry>
        </mxCell>
        <mxCell id="wC8Sx5mPbXhXnmT8yc8--64" value="" style="shape=image;verticalLabelPosition=bottom;labelBackgroundColor=default;verticalAlign=top;aspect=fixed;imageAspect=0;image=data:image/png,iVBORw0KGgoAAAANSUhEUgAAASwAAACoCAMAAABt9SM9AAABGlBMVEX///8sAFkmKC3m5uYAAAD5+fnu7u4UAE7Dv8ny8vLc3N4MAEshAFOAcZapUP/19fYhIylISk0AAAsQExvNiP8cHiSqq6zpwf8WGSCbnJ1wcXMNERn2LnZ9foA7PUFSU1ayVf+jTfg0NjqxsrPWj//AwMFgYWQhAE0bAEYrLTIAAEjAmtndtfQAADnQ0NGLjI6BOciMP9eGh4kRAFd1dniWi6hRO3O1rsGWc7KmgsHzyv80Dl/60P8AAEJOMHOUXcKGUrNAFm3AffFzQ59WLYBVII4yAmJIIXGwceB0MrgAADGhZ889DXFlKqOOGGXwLXXHJG5xEmH6oLv5iKv/3+m0IGv4YZP3AGhGCFyhHGjjssH3R4Tky9P04+h7mNQ9AAAGP0lEQVR4nO2ae3vTNhSHncR25zRLHDtOnahJSi5OUsDmErZRVgpspcAY6y5QBuP7f40d6dipkyYt5Rmr4Pm9fzSWbCn2+0hHR6kNAwAAAAAAAAAAAAAAAAAAAAAAAAAAAAAAAAAAAAAAAAAAAAAAAAAAAAAAAAAAAAAAVmCV7PI35xLbpavmqiVllIx7uxvnsvtd7crvURPse7uFC6gUrvge9ZF1oatCYfP7q71HbWSVNy+WVfmWr+UAYv+vWIbWsioba2RZpkeYZetT4W+8XBspSl9Zmz9cf1BZI6tIeJ9+6+0O0bYu1UZrWbv39/ZuFCqfRZYZEObl1ladZW3c39va2rrx4PPIku2/IlkPfiRXW3v3NyBrBQuyxoX963JkbT0cVyDrLHlZk4PGo5vS1sPHjSe5uPXfyvo6AvzkYNgYkq0b5KpBts6VVW4qWo4qxa2o14uSUb7nuNXu9XqdJl8fN5sDX7b3ZTNVVRs10064wSiRnXQGTr4XTWWNyVWDbO1vSld5WytklTzhE+ZAFkZ9LwxcNwi9oJn1G3OdG/hmZFM5MX3limxRM3lFy/R8hou+4E6El+TuT09ZlckTdjQZ/yStNYY/j9fKsgNXTSnlpmO6xQwv4m6bubrAK5OLsHiKtBOb+aLVFaenRXR6f1rKGh8+PVKyjp4e7j8jW8OD/cN1sqwiu1LzZ8aP6bIdXz1omU0EYaBOCeusrCjIF+v500XRmt+fjrImt3aqL48aw8bRy+rO8xfPhsODF7d3rnGUX5Zl9dWDeuqRRqo29Po071StHG1sIpwlkTLpt4zEC1MfYRhKWSIryOLI4yE4LXrFxSVTQ1ljclUlW7+QqyrZ2j94dPM2VV17ukpWnV1xaOnLESU6FJWdDpsx0nVPTdiBkIGrS+G+xYMrpIMku0QWZFHJDWRwK6u+xSC7P/1kVZ5LV9XqeFxRnzu/TiZKX/Xa5KysHo+gO6oylkMhaHNn6pm92LC9bLIZtWmXmKrTC6nDYkEuFzycWnIdCDrZ/Wksq1BIZVXG62S5PK58dmUk0pxIcwaVHNCcc9SVway0mFMtJKULBZlADHg0jUTOvo6ysmlIXtQ0vEXWxmumIcd2t562z8XpFDkqONoHnui2W6N53rReFlGLm2pOzgLdZXGAl9GcbO3cmqiq1QE+hSabou+ekUUP2vTSgsqbVKJlnCvLblPipqJ9kPXB6ChLpg68v6m8PBxnVatSh8yCy+2XVcnZR9WRyNcIftz1ssre4gDVXFZ+K7h8sEpWFrSmamT53immOtESIpgPOrevrl0vy5eXukI2D78EWeewJCvghMksy8qefEx/kP8vH8coa9CpB6YIc5N2raymHIfudBATKsH4UmTdJc6VFfYccTpcOvnV8Ax2fCfdPcvSWllqlUg7GWi/GuZcvfpt+/g8WW6PHkjFb1/mlrzSp2lRLJOqfmQM1CcnrZEaeirZX5FnsSy1SqRLRqT/ajj38vs2cXx3vSyVl/dUPDblofLmqRypNJW/M9DGbuTJtJ0DlZLFGXna3nEcY1FW152PPl5H1SKh0FnW3WMpa/siWTYPsq4hI7k8FPUkiTzeXjtGjZPS+igezfy5VvZTFEKYxqKsNu9xZq2knu7K662EjP7x519ay3r9UbI4JPOvA7yrdtMMiX+26ShFtLwJTpt6qoNptjwuy+J9NK0coVvkNdQNye+bk+2TD4a+sgpvpau/L5Rl1N1sxDjuwq8vHKnqfq4ucHmBTLLka1mW0Z2nWSLpslL6npPt7ZN3hsayKm9fH79aWg7nsigSuTyjjJIqBHLXY7XN9FldEWTrYscM03EUeFGWp3eFDGrUBx1zZ+kZpy94QHlto2kG6fe8J1n/GBrLkrnD0j+k57L6daJbrkmMVleVBhYdx7OiSYhe07FqjFHu9D1ZWWyPjLSuZjUj2ajet2qG6qxvpydqiezB69G1xiDi77E+vHn/TueYtZLsxRB++6DmKKxcqUafdklWOXO4zq7NG+QaWfPD3BmnZPO1pz3TH61eDPmYV4428MoRg5fZLsHHvCZpX/k9agJewAUAAAAAAAAAAAAAAAAAAAAAAAAAAAAAAAAAAAAAAAAAAAAAAAAAAAAAAAAAAAAAfPn8C1t4qgkKM1zzAAAAAElFTkSuQmCC;" parent="1" vertex="1">
          <mxGeometry x="950" y="1258.97" width="172.66" height="96.69" as="geometry" />
        </mxCell>
        <mxCell id="wC8Sx5mPbXhXnmT8yc8--67" style="edgeStyle=orthogonalEdgeStyle;rounded=0;orthogonalLoop=1;jettySize=auto;html=1;" parent="1" source="wC8Sx5mPbXhXnmT8yc8--66" target="wC8Sx5mPbXhXnmT8yc8--57" edge="1">
          <mxGeometry relative="1" as="geometry" />
        </mxCell>
        <mxCell id="wC8Sx5mPbXhXnmT8yc8--66" value="Actor" style="shape=umlActor;verticalLabelPosition=bottom;verticalAlign=top;html=1;outlineConnect=0;" parent="1" vertex="1">
          <mxGeometry x="510" y="1274.46" width="30" height="60" as="geometry" />
        </mxCell>
        <mxCell id="wC8Sx5mPbXhXnmT8yc8--78" style="edgeStyle=orthogonalEdgeStyle;rounded=0;orthogonalLoop=1;jettySize=auto;html=1;" parent="1" source="wC8Sx5mPbXhXnmT8yc8--68" target="wC8Sx5mPbXhXnmT8yc8--79" edge="1">
          <mxGeometry relative="1" as="geometry">
            <mxPoint x="1530" y="1090" as="targetPoint" />
          </mxGeometry>
        </mxCell>
        <mxCell id="wC8Sx5mPbXhXnmT8yc8--81" value="Source" style="edgeLabel;html=1;align=center;verticalAlign=middle;resizable=0;points=[];" parent="wC8Sx5mPbXhXnmT8yc8--78" vertex="1" connectable="0">
          <mxGeometry x="0.712" y="1" relative="1" as="geometry">
            <mxPoint as="offset" />
          </mxGeometry>
        </mxCell>
        <mxCell id="wC8Sx5mPbXhXnmT8yc8--80" style="edgeStyle=orthogonalEdgeStyle;rounded=0;orthogonalLoop=1;jettySize=auto;html=1;" parent="1" source="wC8Sx5mPbXhXnmT8yc8--68" target="wC8Sx5mPbXhXnmT8yc8--74" edge="1">
          <mxGeometry relative="1" as="geometry" />
        </mxCell>
        <mxCell id="wC8Sx5mPbXhXnmT8yc8--82" value="Destination" style="edgeLabel;html=1;align=center;verticalAlign=middle;resizable=0;points=[];" parent="wC8Sx5mPbXhXnmT8yc8--80" vertex="1" connectable="0">
          <mxGeometry x="0.7745" y="1" relative="1" as="geometry">
            <mxPoint as="offset" />
          </mxGeometry>
        </mxCell>
        <mxCell id="wC8Sx5mPbXhXnmT8yc8--83" value="Ingestion" style="edgeLabel;html=1;align=center;verticalAlign=middle;resizable=0;points=[];" parent="wC8Sx5mPbXhXnmT8yc8--80" vertex="1" connectable="0">
          <mxGeometry x="-0.1834" relative="1" as="geometry">
            <mxPoint as="offset" />
          </mxGeometry>
        </mxCell>
        <mxCell id="wC8Sx5mPbXhXnmT8yc8--68" value="" style="shape=image;verticalLabelPosition=bottom;labelBackgroundColor=default;verticalAlign=top;aspect=fixed;imageAspect=0;image=https://images.g2crowd.com/uploads/product/image/social_landscape/social_landscape_c4b932ba54c8a83e0ff6783750fc432f/airbyte.png;clipPath=inset(13.29% 27% 1.9% 27%);" parent="1" vertex="1">
          <mxGeometry x="1299.04" y="1160" width="102.99" height="100" as="geometry" />
        </mxCell>
        <mxCell id="wC8Sx5mPbXhXnmT8yc8--76" style="edgeStyle=orthogonalEdgeStyle;rounded=0;orthogonalLoop=1;jettySize=auto;html=1;entryX=0;entryY=0.5;entryDx=0;entryDy=0;" parent="1" source="wC8Sx5mPbXhXnmT8yc8--70" target="wC8Sx5mPbXhXnmT8yc8--74" edge="1">
          <mxGeometry relative="1" as="geometry" />
        </mxCell>
        <mxCell id="wC8Sx5mPbXhXnmT8yc8--84" value="Transformation" style="edgeLabel;html=1;align=center;verticalAlign=middle;resizable=0;points=[];" parent="wC8Sx5mPbXhXnmT8yc8--76" vertex="1" connectable="0">
          <mxGeometry x="-0.2464" y="-1" relative="1" as="geometry">
            <mxPoint as="offset" />
          </mxGeometry>
        </mxCell>
        <mxCell id="wC8Sx5mPbXhXnmT8yc8--70" value="" style="shape=image;verticalLabelPosition=bottom;labelBackgroundColor=default;verticalAlign=top;aspect=fixed;imageAspect=0;image=data:image/png,iVBORw0KGgoAAAANSUhEUgAAAPcAAADMCAMAAACY78UPAAAAwFBMVEX/////aEkmKjgiJjVARE8ACyLT09YLEyf/ZkYaHy8YHS7Q0dOGh43/YT96fYT/ZET/Xjrz8/QSGCqfoKX/6eQAAB0eIzL/dFg5PUn/+Pf/i3X/8/H/2NH/blD/xbv/4t2RkpiAgonq6uzExcgrLz7/mYb/k37/el//clX/hGz/o5L/v7S3uLv/zsX/uKtdX2hNT1pqbHT/rZ6srbEAAA0AABX/sKP/oI8AAB9vcXq8vcEzN0Tf4OL/WTOXmZ//0suwK9fxAAAGG0lEQVR4nO2aeV/iOhSG22agi4QubLIpFgHBBYQ7jgo63/9b3bbpmrSgd2QZ7/v8BUnaX97m5JyT00oSAAAAAAAAAAAAAAAAAAAAAAAAAAAAAAAAAAAAAAAAAAAAAAAAAAAAAAAAAAAAAAAAAAD4X9Juf2TQ3qdxYHqdfn9U3zHofiK3lt2DzOdAjCxT0yhdblvP3sQyZY1qvYPNau+MqRxA5duiIfWxp9pHo99G+IUlh2jWJFdVe0bNaIx58112+Y0mx5jWWNzmFzJNRsjWxRHmuAfqlpzG5Ld5b2ppmQHTI030i7nM6va2eT+1ot2RZWa7tdbx5vqlyBonXLOml2HfBaVcp0yfdt7RHia/3bP9zPrPueUX3N/mMxao6zfcansPaUcIt+8e9XX4213Nn1/2O/s/oMUvuJzEtDqvmz5svdfdo6HqzR/+T7u2UJ2mXt2/gP/IvbjgibHfZg1da20NY3ZDVxSFBLrP/ml6v4t128O7r9Xxaab8oobGPvJNup+xBut+651sQ4l1l0tKsW5vN5CfV1+u5HMILj2yad+on9ILbna23+mDut25quqKUdmDlk/xS/Da0fK2epmHYu04vHxQ99mz33V83V0hlqW2eaqLznbc6KO61dPQLT0UWLqvPP1z1zH0b9OdG8tEqy88r0X8dbp7xQseY04KLnZXlWqlVpYKddt3lWp18GpHFzDd+pXtetgFdz0M4yLXllruy9wrN/Nn1dANp3Q+LNB9VfIG6IaqDkKNTLfSVD1+vh9MYx71nYZe4NRqJV1hkMaVrQu6r9xrJxygOEo5uCbUzdpqhxOZxxO34JRy2YyZ69TeS4kERa1e87qbLz+ayQCiBseUU9Jdz+q2LqRppsUc5V01jGTrhk48lQqvWyHE7zRC8YT4ph7pJh7H1i1NtKxsSersrrOck0CAQV4qlUWJKKJuTzV5eR88Oky5M5Bi3b5soh5b9yhl15SJ7KSacr3aK9PmVAOHNSQkR7fzGHRuFswPlOyUPw84lMACZsnqRjWV33SH7nmwiPpj+HfjiLqbi7DTXgdPRb07pfgtceu99Fu6adPP083ClqK7UUNFiGOKGhdcVk70kE5Kd3Z/e8K7rbRHpznJ2hlz2fO4oazyusk67rRDb3Zaunl/vrzMyM49gt6x+Q/ihpz4/ZgM/xEYumOflO4ZH78tLpOhoqEzy3VWSYuwv/WUOOYNVPeUdF/m1lwyCy4Wzmu7dRsnrruzU3dOjSlc71QEJsJ6p85jC2bnp6Q7t7bIofX5muJQ5aS5Dq87DmMeQXgn+gn5tXb/I+dv4WSyYe77PG54Ffy5osd5SfIgmNs3jl1XlKRlyqlpxRZP+fJamIq8Rv/ZDs7oTnZ/VY+8P8tvyEI6Mum3A9p0ynvyGHPMXThgAtZh4rJSxXyN6BvWyYKe0thE4U5xjl1AH6d1t6QLrbC+yr0f34QFBMVXYFfCjDybnxNn5Zm6OwiHBknOgh1S1JfX4WooTOdQZItMb12p/Ys/fCcPJUs1zMhV53zdMJS8c4m3rur6usRSWuU5SFtrYSlCV9WfxzuPTTIig9z8spNv7Bb3esw+j6oKgbNeC3UHJRhAokegMh9uk7jleOdv/oUoDQor9/08Y9c0ruriKlGZyd+7wzWv2xhUkooMKUVvR4cNkuiuvlfsuXRo2vxLgygxW+YZuxDL7HkprLI43hEzqCWw96Hl56CcUpEGoY17A5K1fTUcEukeuu/vh9fNF9Y8bVOWoNQ7b6KxC7FMep03SqVS49qvll77KEGAKivnHuuB5/2udG9EYz1wU1e5g3VwmefUh+6qdnhrFzI1820UGXOvJfTmlVXt8lnZFZtTuJuNWFexN+Udl+0R/mVo6isPnweTMwft5lgz/Vq6Wd1U5uqH7Vn2yx4hd/lbSb/1N62lOKDeSSu3fh9+inshyVpyv9oLhkziaE6/yedrHk9v4cbO/0oz4P6GKaetb/RF8gOlpmn1t3+A+SBTk1qdbyTb28HL6fR21/e27Yfx7Nt8jAwAAAAAAAAAAAAAAAAAAAAAAAAAAAAAAAAAAAAAAAAAAAAAAAAAAAAAwBb+BUIMadI6xhkgAAAAAElFTkSuQmCC;" parent="1" vertex="1">
          <mxGeometry x="1290" y="1361.2" width="121.08" height="100" as="geometry" />
        </mxCell>
        <mxCell id="wC8Sx5mPbXhXnmT8yc8--74" value="" style="strokeColor=#666666;shadow=1;strokeWidth=1;rounded=1;absoluteArcSize=1;arcSize=2;fillColor=#f5f5f5;fontColor=#333333;" parent="1" vertex="1">
          <mxGeometry x="1588.81" y="1280" width="150" height="60" as="geometry" />
        </mxCell>
        <mxCell id="wC8Sx5mPbXhXnmT8yc8--75" value="BigQuery" style="editableCssRules=.*;fontColor=#999999;shape=image;verticalLabelPosition=middle;labelBackgroundColor=#ffffff;verticalAlign=middle;labelPosition=right;align=left;spacingLeft=20;part=1;points=[];imageAspect=0;image=data:image/svg+xml,PHN2ZyB4bWxucz0iaHR0cDovL3d3dy53My5vcmcvMjAwMC9zdmciIHhtbG5zOnY9Imh0dHBzOi8vdmVjdGEuaW8vbmFubyIgd2lkdGg9IjIwLjAwMTA0NTIyNzA1MDc4IiBoZWlnaHQ9IjIwLjAwMTA0NTIyNzA1MDc4IiBmaWxsLXJ1bGU9ImV2ZW5vZGQiIHZpZXdCb3g9IjAgMCAyMC4wMDEwNDUyMjcwNTA3OCAyMC4wMDEwNDUyMjcwNTA3OCI+JiN4YTsJPHN0eWxlIHR5cGU9InRleHQvY3NzIj4mI3hhOwkuc3Qwe2ZpbGw6I2FlY2JmYTt9JiN4YTsJLnN0MXtmaWxsOiM2NjlkZjY7fSYjeGE7CS5zdDJ7ZmlsbDojNDI4NWY0O30mI3hhOwk8L3N0eWxlPiYjeGE7CTxwYXRoIGNsYXNzPSJzdDAiIGQ9Ik00LjczIDguODN2Mi42M2E0LjkxIDQuOTEgMCAwIDAgMS43MSAxLjc0VjguODN6Ii8+JiN4YTsJPHBhdGggY2xhc3M9InN0MSIgZD0iTTcuODkgNi40MXY3LjUzQTcuNjIgNy42MiAwIDAgMCA5IDE0YTggOCAwIDAgMCAxIDBWNi40MXoiLz4mI3hhOwk8cGF0aCBjbGFzcz0ic3QwIiBkPSJNMTEuNjQgOS44NnYzLjI5YTUgNSAwIDAgMCAxLjctMS44MlY5Ljg2eiIvPiYjeGE7CTxwYXRoIGNsYXNzPSJzdDIiIGQ9Ik0xNS43NCAxNC4zMmwtMS40MiAxLjQyYS40Mi40MiAwIDAgMCAwIC42bDMuNTQgMy41NGEuNDIuNDIgMCAwIDAgLjU5IDBsMS40My0xLjQzYS40Mi40MiAwIDAgMCAwLS41OWwtMy41NC0zLjU0YS40Mi40MiAwIDAgMC0uNiAwIi8+JiN4YTsJPHBhdGggY2xhc3M9InN0MSIgZD0iTTkgMGE5IDkgMCAxIDAgMCAxOEE5IDkgMCAxIDAgOSAwbTAgMTUuNjlhNi42OCA2LjY4IDAgMCAxIC4wMDctMTMuMzYgNi42OCA2LjY4IDAgMCAxIDQuNzI3IDExLjQwM0E2LjY4IDYuNjggMCAwIDEgOSAxNS42OSIvPiYjeGE7PC9zdmc+;shadow=0;" parent="wC8Sx5mPbXhXnmT8yc8--74" vertex="1">
          <mxGeometry width="30" height="30" relative="1" as="geometry">
            <mxPoint x="15" y="15" as="offset" />
          </mxGeometry>
        </mxCell>
        <mxCell id="wC8Sx5mPbXhXnmT8yc8--79" value="External Source" style="shape=datastore;whiteSpace=wrap;html=1;" parent="1" vertex="1">
          <mxGeometry x="1590.71" y="1060" width="146.19" height="60" as="geometry" />
        </mxCell>
        <mxCell id="wC8Sx5mPbXhXnmT8yc8--89" value="" style="strokeColor=#dddddd;shadow=1;strokeWidth=1;rounded=1;absoluteArcSize=1;arcSize=2;" parent="1" vertex="1">
          <mxGeometry x="1790" y="740" width="130" height="60" as="geometry" />
        </mxCell>
        <mxCell id="wC8Sx5mPbXhXnmT8yc8--90" value="Cloud Run" style="editableCssRules=.*;html=1;fontColor=#999999;shape=image;verticalLabelPosition=middle;verticalAlign=middle;labelPosition=right;align=left;spacingLeft=20;part=1;points=[];imageAspect=0;image=data:image/svg+xml,PHN2ZyB4bWxucz0iaHR0cDovL3d3dy53My5vcmcvMjAwMC9zdmciIHhtbG5zOnY9Imh0dHBzOi8vdmVjdGEuaW8vbmFubyIgd2lkdGg9IjM2NS40NjQ5OTY3NzA0MjQ5MyIgaGVpZ2h0PSIzNzkuMjIyOTk0NDYzNTc3OTUiIHZpZXdCb3g9IjAgMCA5Ni42OTU5OTkxNDU1MDc4MSAxMDAuMzM1OTk4NTM1MTU2MjUiPiYjeGE7PHN0eWxlIHR5cGU9InRleHQvY3NzIj4mI3hhOwkuc3Qwe2ZpbGw6IzQyODVmNDt9JiN4YTsJLnN0MXtmaWxsOiNhZWNiZmE7fSYjeGE7PC9zdHlsZT4mI3hhOwk8cGF0aCBjbGFzcz0ic3QwIiBkPSJNMjkuNzk0IDEwMC4zMzZMNDYuOTIgNTAuMTY4aDQ5Ljc3NnpNMCA5OS42NzFsMTIuOTc2LTQ5LjUwMkgyOS4yMkwxNi44OTcgOTIuMDU0eiIvPiYjeGE7CTxwYXRoIGNsYXNzPSJzdDEiIGQ9Ik0yOS43OTQgMEw0Ni45MiA1MC4xNjhoNDkuNzc2ek0wIC42NjZsMTIuOTc2IDQ5LjUwMkgyOS4yMkwxNi44OTcgOC4yODN6Ii8+JiN4YTs8L3N2Zz4=;" parent="wC8Sx5mPbXhXnmT8yc8--89" vertex="1">
          <mxGeometry width="30" height="30" relative="1" as="geometry">
            <mxPoint x="15" y="15" as="offset" />
          </mxGeometry>
        </mxCell>
        <mxCell id="J4SpNiEphMcd3WOeLlQk-1" value="" style="shape=image;verticalLabelPosition=bottom;labelBackgroundColor=default;verticalAlign=top;aspect=fixed;imageAspect=0;image=data:image/png,iVBORw0KGgoAAAANSUhEUgAAANEAAADxCAMAAABiSKLrAAAAsVBMVEX///8PFokAAIMAAIGoqtALE4jc3ekAAIYAAIIAAH6usNMKEojKy+IADIfv7/kIEIiSlcWztNQvNJWPksXX2eu7vdpjZ69eYq4WHo5zdrTExt/y8/kyOZr3+PsiKJBKTp5naahRVKHl5vNSVaibnsvS0+chJ5ApLpNvcrVDSaMwNJMVHZA8QZ1BRJmGicB5fLV/gbWnqMt/gr0AAHVvcrJlaKyXmMNOUZ08QJeeoMdITaS/qWB0AAAOP0lEQVR4nO1dC3eiOhCWYAyKIbWKoBRdaNVua3Vvb+2t/v8fdn1LMohCgo89fGfPvecsbpIvj8lkMpMplS4Fa/7c7voXqy5/tPo6NdAf79rtUIZwRLQlUOfaDVGGDtLWMLrXbokidDHeMKJ969ptUQK/Q7QtSOPajVGCCsM7RkbwV8i7B6TtYYTXbo0KPLIDI9S8dmsUYIDwgRHtX7s5ClAmB0Iae2xduz3y+BNlhOn9SzvPoRFGGppfu0HSqEQFw3JHmt69/G5RHGVEn+9eXa0bUUIaG969IjRHHCON3D2jicBIv3ut4ZUIjOrXbpEsHH4daUbt2i2SxW/KM0Lla7dIFk9MYPRy7RbJ4vEGGckJJ8WM5CWl/0kQWTSyF6Rw1rXmvWVjZCXLg4GXCrMxmmdVx4BkyKqqhhNqLM/3jNgZC9igxcyN8kLcjAcbR2CUVXrXKNkoiHQspRk29F1LqJttuqjZYb0p2c9eJKVHNQ86DCOfWWaeEi0o7JODBq9LHYOj7cGonaF3ajwjnEVTrY+jA60P0pdwwAPXHuSkb46C08Sgx7VCTtft8u1BQer2DAh/4lukXtfdESdcMJNaR8IJVEPttGtJPJV30hYQury0zNAnXHELcTuZpWyRN+OGmfyTsgWVN7EFkkbMqSB8NfKZsgTeusXS7o990ABJpaEsFojTHgdqnAXyLeWyngnCP30JIix+Ya+KHKXaD6wui1qJnXTVl6lYPUpZAsRMHCSNvp9eSr4VVmqfzmLkam60TbgXvDbtMLTOW40DYoq1y98T1gEjDZ1YSq3G968x1hEyKDMx38mYEmQgt9+Zd0+LLE+US8vufJK2YHptcSYnGa+9sNb+GVJCmDhbOJjLX2hvwUslmVUT9qb0YWKJBmCksffYlnj2PCAGWo5LEpt9vzCK0PjBPr5f1sEa1tiPCuPYGAy9hibgV37r60MjYCGfAEV0PKvHTyQfzjnNeFBAqGTDQTJd4UxQqY1RajprYEaM3nec8jmHc465Su4BfCdmOnPOFuHnG4H9eT4YGrbBzmt9wCKJItPYYAhkaOTg5nWd5dqR4LOCifSRYMxoGuBX6bXKY/iMKXy30dkBgbMyCxj5KUcabJmwG6vqrjw/AKWNguYPRnqm1RMLapDGXojGSW6FF+1dF0wrMl1upb+ozPKBMEmw3epCuIoMpT445ZhBGkwo3DBkQcl4vULhLoip1GkcAOjAGuuhU3xMRpdAhKAlCCGUsmRdYsOpaUEzn3rzctgHVSS3jRFEhuOP/n9B+3U6eWhOPjuzoP8zcpd/TxNFIyY9O9TFv1V/Jd0iZ0vopXpjkNHsu1EPRW3JanUb8z/BsIpQwmgxMhYrI2P1t502g+I0tjX0sT+xraTzgue1Xpy3JJ1JJERHeVx21k6um+UB1xj9aZxn2fC73w5JGqkoQVetVNjhO5kSJsR07DR96VUelieP07OZkbzcQctJ0prSX7UMc707HZ0ae9bL7zb65VjlmBjjQUZhFE4IStqoKcpnym0AjF0bEPxLqtZy//joo6c8Hdhe4jYhTHQn6/jsYM3JEf1dH1XUtD0O/gSaZlaT4lVFJ1rNYdz4s3GeI9SJmRoYjVS5XAzaeswwISWWhVj405hzEH3vKPQum49ihol85DVKX7A2jJ7UytVWO2Y1kXEuo+SLt4+rAdKaqpUtv9yLOekFeVD6hIRIP4+dvDWDqxX11VOag60VoyAf/0z/BepFqK26rhoVxTam+XnX20N43PtSW8UAmBmokadT2QCal1RaTUqlSk/sM/SYrydjGIiUsCrj4wrQpory1EzWsJ7FYzkbqtuWwM6axa0hLfymKPKoq0o62OLZGbkXcXB+EDsymxcPREuUCnSc95TbQrSqYqIm5qKvIx74QoRK/qtQNZHzcdrCdto8ZpcLIPI+hcqd5t2HkRQoUKBAgQIFChQoUKBAgQJ/L6xKFOIhnv8qfPQrJ8D/3OO+nba8bX53vhltV26zqu9RfRevuyeRr/q/Qundf/UkVAUf2S6Jfjx90bkuvXr2xdELWv++zFn54DMxzagNsCowqgPvKt6oK/jO16PBBuj08y3VjdHxzHvl7Q0xqt08Iw2d4xDkvW5vt+6BkUaHJwOW/MXO+HoXjDRmnKAU9vfNvA9GGtMSb47CSGTpnTDSzOr3ceNwPeoCcS+MNExh4MmeUPT68W4YaVh34vfkGu/GppLR2g06CvKokNFyY4qlVBb8WRUywuO+CCFooyvHSCNPUH14EB0fFDJiZc8SIPSpLCONfIia5QQ4pyhkdPpVOslZt/pH/GW5N4UepnfGSKOjyF7rw4DJ+2Ok0UM1IYzjuEdGS4m6jQYJP2KjuERGbzfPSDPJ9+pj6yPepRmMUZ0XWN5EISNpWbcBRlO/VKdH4uwERpq7CHg8Rl3QkqX3SZVfzRhpq6gdGzheHWMENn7Opy55h120HQ5AEVM0RitKxtFAC8AoESe0IAMZmz+b/yxyG6MkqGQkgD4XjApG12ckJRlY/PazqijpfHS7jKhzJEhII4sXrtx7mXVkWopRtFcfAquu3SWjTozbqrZ5M6t7r4xW70+AENnV81K5MRLUDaSeUanMSwFsfK3O/cmMKNrv/OvNn+uUZC3oY8a7X4L3d2Qkw/bBjnpUn8Nso2glMnKfed2szYVCn7Az+B4HYDJUwChqbTSrW7/iJEbwfPRwI+ej/aMq3s+WEnN3N1CJjG72DHt4JmYbT0EPMcz3zqhUai+lOB0d4lDun5E/RSRq5roeIxWSYduqn6gp8lYYPQzqAsSg5+OMSpy19kYYYbcnYCi+HJjAiC83J0YpLScaNgXQ4Y0xMvu/RHQSblsgzN6NMVoqUARt/uz+P7pzRgCJd3wFo4JRwahgVDAqGHGMmtVDtKkOArcnka9I9IGsV1ES9KHoA2kk/dzAAqN/Ix+rCU8ZcOVWy6VBOQLwxhT3VUyhEc7LiRB01zD51+Wa4P/AlZ7wVgdf7qWCjwsUKFCgQIECBQoUKFCgQIECBdawGraASz0lZokV22pexbYcIrgYjy6TzRpUTN4VVRwOKeZAySVGyXMQXy1GcolhI7BFbz36mOej6BtY8DnNV3Wlv4g+a9Q47ZAghwoBhAKFr/H5fZGSiZVkvzoKITnnqhNdpU8Tez/gwVbjSPSjEtTA0+Wsp3jtth5B8EU+T1Sv0QTZR8zTLiBp0XqHlEb5yIfQge9UkxzSttswpxMdqnnflEcZviyP1T6zvEMXvrrNiKN6Zwq/4LPyWDYj7DHU4ChphMyVvujbdWM81Vf5vfJBIyYREyZjdU/L+68gS9BqhBQ9RxyHmhsTbkZRR9HUazzFDBB2j8b9q0AXSrwl0NtEwdQbzGLT0bCcnxJv9eNi6BhCn5KSfDDTj+SiYSiv3EcbzOLDHDFy/0jMvfrX+9EII425OT7J7y2OxlmYpNquZ5p8of14bHy2RVdzS5vgxSQhjYCQoJn6TDZ4GJ9MW5pbJgh/nEhIW/nK09GkdfZIeeEqq+wZSfFy2mP92HB7sW6GSP/7nLUc2t/Ou3Fmmk9M81hLx2LpACjRfpymHYrPaOzge6Hd6Y8wMY4m+KMiU0aUHcn3KKeI58SrEGY0DCb/1Bp2d1BZZRv0PStsDbp27bv9RHRCExLxYfQBEt8wplrTr7+DDj2ZdI6uPIs1d/T28/Ffv//xM37suSZBpxL+UrPjlcAMp7/VnscsmByGdM7KrYyxyTYxcYyBfOxx/YCeVwLzFcxxNFPKCGbcor+t+iIxj14WMPL+spaVMbnKkUrpEJNoe53cveZI54zmGz3aqYj+DFTJVFkgl7Dg0YhtQje8smuoGidG0OygltZgJ6IfZYwCWLqxP/nPA6lc5TuY6G3Krf0nWKquyqbWhZKWvR82G8teGOenw40Fpgb9Fo4NDZhSnMU8VZUF3gImJCa8tanVGUtkLWdIC17AQdVvx8w7EGebCTXYWQYw2YY1x0Ag29hpYEZ0d9KNUy/qUEXCRMUgeY8x1pm4w1DY7PdIuulHkfbTsY/ZEWKSNBIVGdJiJPfRwR/88zXUUZKGs4e5PPmi3w+xo7OFBYUDduUluAVXEU1Iy+h7g2bwpq1SeB+dgkv1iJDhW3t+6jXfBpx3RH4l2XAV6aeM0F63/P21cJGOQG5yauhkFEzn5bMUT5ipERPpG4RnqNC1z/l3vhVWuuXma/A72s+0bw/CEAbSH0HMvJNOBBgC/Yr20/XSgHL/OF31rR7IbZiyBAAgF1jaPM4v0RJY2guNclU8+0leifi/BEZMS3uY5M++JO1FEMjiKpk8sSJsRhilvcmxAv5Jn7Q3NP5MEE2kI2UHH/BDlOEmp8KvBPKauj2CnsyepKQdry5ikt6s3uLbQxep22M5iG+ElJWdm8WZ7tqE/cx8T98enx8lXUq360TKYpkuD+fCykYZetibRa00utRtRWSMaDYh8ykIy2zt+YpowHJj1NjFH2K0yGYDFF9y1bNdnszd3VafZd5GUBmu+8YkWtZM66Kia2RMQR8GaDP1kJz0LtUIoRS9TzPfDo0FRqk3pD26zrotIMg1Leqz8fMEpAs5H0/ii9XZnS28QXsx7lw9nlI8AUswuhH8fYwUzrobwW9RMuSZuv0icATV+VSKj9uHeG2i5+/jmjOaos6Qm6PhpSCYryXPAreAAT9G7DFH/9bLoGVypg8a3D2jcMyfyv9cu0HSEKxJJKPqfUtoRhnh1MaxG0SDs0D+3L2oW54BohcMyLl2c1QgeoqVtsPfBOaRPfb+99cVwoNVlSiMIbom9tIOm/l60V4MrZ3LCmnn54x+WWztqkzJ3f1NwP+1MrUxyZufm4I/Qcigf4G6EEF3Xr5EzOn/TX85SxCbKeQAAAAASUVORK5CYII=;" vertex="1" parent="1">
          <mxGeometry x="770" y="380" width="78.05" height="90" as="geometry" />
        </mxCell>
        <mxCell id="J4SpNiEphMcd3WOeLlQk-5" value="" style="shape=image;verticalLabelPosition=bottom;labelBackgroundColor=default;verticalAlign=top;aspect=fixed;imageAspect=0;image=data:image/jpeg,/9j/4AAQSkZJRgABAQAAAQABAAD/2wCEAAkGBxISEhUQEBIQFhUVGBMXGBAXFRYSFRAXFhIWFxUYFhYYHSgiGR0lHRUVITEhJTUrLi4uFx8zODMtNygtLisBCgoKDg0OGxAQGi8mICUtLS0tLS0tLy0tLS0tLS0tLS0tLS0vLS0tLS0tLS0tLS0tLS0tLS0tLS0tLS0tLS0tLf/AABEIAOEA4QMBEQACEQEDEQH/xAAcAAEAAgMBAQEAAAAAAAAAAAAABgcBBAUDAgj/xABFEAABAwICBQYICwgDAQAAAAABAAIDBBEFIQYHEjFBE1FhcYGRIjRScnOSobIWIzIzVGKxs8HC0RQXQlOCk8PSJEOi4f/EABoBAQADAQEBAAAAAAAAAAAAAAADBAUCAQb/xAAwEQEAAgECAwUHBAMBAAAAAAAAAQIDBBESITETMkFRgRQzUmFxkcEisdHwBUKhI//aAAwDAQACEQMRAD8AvFAQEBAQEBAQEBAQEBAQEBAQEBAQEBAQEBAQEBAQEBAQEBAQEBAQEBAQEBAQEBAQEBAQEBAQEBAQEBAQEBAQEBAQEBAQEBAQEBAQEBAQEBAQEBAQEBAQEBAQEBAQEBAQEBAQEBBglABQZQEBAQEBAQEBAQEBAQEBAQEBAQEBAQEBAQEBBF9YGMupqcCM2klOyHcWi13OHTuHapsFOKyrqsvBTl1lHtWuPyGV1NK9zg5pcwuO0WuFrtueBFz2KbU44iOKFfR5rTPBZZAKptJlAQEBAQEBAQEBAQEBAQEBAQEBAQEHzthB9ICAgwUFZ62JCZYG8AyQ+s5oPuhXdJ0ll6+f1V9fwj2h0hbXU5Hl29ZpB+1TZo3xyr6ef/Wq7QsxuMoCDF0GC5DdkFBlAQEBAQEBAQEBAQEBAQEAoKHZidRDM57ZZGyBzto7RNyDmHA5HqK1OClqxGzB7S1LzaJnfdamiGlDaxha6zZmDwmcHDym9H2KhlxTTn4NXT54yx80jBUSyXQLoK11rxHbp38C2Rt+lrmn8yu6TpPozNfH6qo9oVCX10AHB20eprSfwU2ef/OVfTRvlhdQKy4bTN169ZQc/GMUjpojNKbAbhxeTua3pK9pSbzwwjyZIpXilUGPaST1TiXuc1n8MLSQ1o6bfKPSVo48NaR5sjLnvknr6LQ0Ec80MBkJJs/Mm52eUdsf+bKln2452ael37KOL+83fUSwICAgICAgICAgICAgICDBQVNrGwYwz8u0fFzZ9DZP4h27+9X9Nk4q8LJ1mLhtxR0lHMMr3wStmjNnNN7cHDiD0EXCnvWLxMSrUvalotC43aS0zYGVL5GtbI0ENPyzlmA0Zkg5LN7K3FwxDZ7enDFplEMW1kON200QA/mSZk9TAcu0qxXS/FKnk13wwjFZpRWS/KqJAOZp5MD1bKeuHHCtbUZJ6y5ks73Zvc93S5xd9qkiIjohmZl8xyOabtLmnnBLT3hJjd5EzDq0ek1ZF8ioktzOPKD/AN3XFsWOfBNTPlrziUmwrWQ8ECpiBHlx+CR1tJsewhV76X4ZWqa6f9oTnCMagqW7UMjXc7dzm9bTmFVvS1OsL2PLS/dlVmnOOGpqC1p+KiJa0cHEGzndpy6h0q/gx8FefVlanLx35dIcrBMMdUzMgZfwjm7yGj5Tj1D22Ut8nBXiQ4sc5LRVelLC1jGsaLNaA0DmAFgsmZ3b0RtG0PVHogICAgICAgICAgICAgICDSxbDY6mJ0Mou13e08CDwIXtbzWd4cXpF42lSOMYeaeZ8Je1+wbbTdx6+Y844LUx34qxLDyY+C/Du0yf/n6Bd7c3M84SfBdB6mcBzwIWH+J48I9TN/fZV76mtei1j0l7c+iYUGr6kZ85ykp+s7Zb3Nt9qr21N56cluujxx15uvHovRNFhTQ9rQ497rqPtsnxSljTYvhgk0XoiLGmg7GBp7wnbZPiezp8Xww5Nfq+pHi8fKRH6rtododdd11N46or6LHb5IhjOgtTAC6O0zBxaLPA6WfpdWceprblKnk0l6c45wjdPUPjdtxucxwv4QJaR0KeYiesK0Tas8pYpoHPc2Ngu5xAaMhcncM0mdt5eVjimIhcGh+jbaOPwrGV9tt3AfVb0D2rNy5e0n5NnBgjFX5pEFEsMoCAgICAgICAgICAgICAgwUEK080q5Afs8B+NcPCeP8Aqad1vrH2Kzp8HF+q3RS1Wo4P016/srWipHzPEUTS57jkB9pP4q7a0VjeWZjpNp2qtfRbQ6KlAkfaSbLwyPBj6GA/bv6ln5c836dGtg01ccbz1SgKFaZQEBAQYKCM6U6IxVQL22ZNwkAyf0PHHr3qbFmmnXorZtPXJzjqqfEKGSCQxStLXt3j8QeI6VoVtFo3joybUtSdpWLoBpUZQKWc/GNHgPP/AGAcD9YDvCpajDtPFXo0dLqOL9FuqchVl5lAQEBAQEBAQEBAQEBAQEGCgrPS3QiYOfUU5dKHEudGc5ATvt5Q6N6uYc8cq2Zmo0lt5vTn8kn0K0bFJFtPAMzwC92/YHBgPRx5yoc2Wbz8lrTYIx138UmUKyICAgICAgWQRzTDRxtXF4IAlZcsfz87D0H7VLhyzjn5K2owRkr81c6O6N1c8gdE0x7Ds5nXaGOacwPKII4K7ky0rXafFn4sGS1t45bLmhBDQHG5sLm1rnibcFmtmH2gICAgICAgICAgICDjaQ6Rw0exy238Zt22W7XyNm98/rBSY8Vr9EOXPXHtxeLm0mntLI9sbRNd7g0XYALk2HFdzp7xG8o41eOZiISq6r7rTh4/pRBSOayblLvBcNlu0LA2N81LjxWv0Q5c9ccxFmph2m1LPKyGMS7TzYXYANxOZv0Lu2C1Y3lHTV472isJJI/ZBcdwBPcoOaz80SGsWj5p/UH6qx7NkVfbMbP7xKPmn9Qfqns2Q9sxn7xKPmn9Qfqns2R5OtxwkGCYsyqi5aLa2SSPCFjdpsclDek1naVjHki8bw0cd0qgpHtjmEl3N2hstDha9ufoXWPFa8bw4yaiuOdrNfC9NqaolZBGJdp5IF2gDJpcbm/MCurYL1jeXNNVS9orCShQrLKDl49jMdJGJZtvZLgzwRc3IJ3f0ldUpN52hFly1x14rOD+8Oj5p/UH6qb2W6D23FtuldFUtljbKw3a8BwPQcwoJiY5StVtFo3h7FcukYxHTilglfC/lS5hsdloIva+Rv0qeunvaN4VraqlbcMvbBdL6eqlEMXK7Vi7wmgCw3536V5fDakby9x6il52hIQolhlAQEBAQEBAQV1rc30vVUf4Vd0nS3p+WZ/kOtfX8IZo/wCNQelj98Kxk7sqmH3lfqvYLJbys9bHz0Po3e+r+kn9MszX96Po4Ghfj1P5/wCRymzRHZyrab3lVzVnzb/Nd7pWXHVtW6S/Pzdy2Hzzp0GA1M7eUhhe9tyNoFtrjeMyo7ZKVnaZS0wXvG9Y/b+Wz8Eq76NJ3s/2XnbY/N3Gly/D+38rI0CoZIaQRzMcx2287JtexOW5Uc8xa+8NPTUmuPaUR1q+Mxei/O5WdJ3ZUtd34cfQXx+n85/3Mikz+7n++KDTe+r6/tK6Qs1uMoIXrUH/ABI/TM+6lVjS99T1vu/VVi0GStLVhiW3TugJzhdl5jySO47Q7lQ1NNrb+bV0WTenD5JTitaIIpJnbmNc7rsMh32Haq9Y3nZavaK1mZUPNKXuc9xu5xLieck3K1ojaIhgzMzO8pNq18dHo5PwUGp7nqs6L3vot0FZ7XZR6ICAgICAgIK61ub6XqqP8Ku6Tpb0/LM/yHWvr+EGwyoEc0cpBIY9jiBvOyQbBWbRvExClS0VtEysQayoP5E/ez9VR9lt5tL26nlKJ6Z6QMrZI3sY9oY0tIdbO7r5WKtYcU0id1TUZoyzEw8NCvHqfz/yOXWfuWcab3lVzVnyH+a73SsuOrat0fn5u5bD55ONENMIaSn5GRkpdtOddoaRY2tvIVTNp5vbijZf0+prjpwzDtnWRS/y6j1Wf7KL2W6f27H5SmTHXF1W22XYndWGtbxmL0X53K/pO7LK1/fj6OPoL4/T+c/7mRS5/dz/AHxQab31f74SukLMbjKCGa1PFI/TN+6lVjS9/wBFPW+69VY0lOZHbA37L3Ac+wwvt3NKvTO0MuteKeTtaC4nyFYy58GT4t39XyT62z3lR56cVJjy5ptNk4Mn15JdrRxLZhZTg2Mpu7zWZ+0kdxVbTU3mbT4LmuybVivmrj9nPJ8qdxfsAeVZu049l2et0K7vz2ZvDy3SHVt46PRyfgodT3PVZ0XvfRboWe1ofSPRAQEBAQEBBXWtzfS9VR/hV3SdLen5Zn+Q619fwgEETnuDGC7nEADnJNgM1amYiN5UaxMztDs/BCv+jP8AXj/2Ufb4/NN7Nl+H9nPxPC5qchs8ZYXC4BLTcA2/hJXVb1tE7S4vjvSf1N7Qvx6n8/8AI5eZ+5Z1pveVXNWfNv8ANd7pWXHVtW6Pz83cth886uHaO1VQzlIIS9tyNrbjGY35OcCo7ZaVnaZTUwZLxvWvJsu0Lr7H/jH+5F/uue3x+buNLm6cP7fyuaHcOoLNnq2a9FY61vGYvRfncr2k7ssvX9+Po4+gvj9P5z/uZFLn93P98UGm99X++ErpCzG4yghmtTxSP0zfupVY0vf9FPW+69Vf6LSbNZATu5RoPSHeDb2q5l50n6M/BO2SHnjtCaaolhzGw87J+qfCYR2EL3FaLUifk5y0nHeY8peuk2MmqmEpBFo2NsegXd3uLuyy8xY+CuzrNl7S3F9G/pZQ/s8NHAcnBkr3+fI5l+7Zt2LjDbitafp+XeenBWlflP8A3Z6atvHR6OT8F5qe56utF730W6FntaH0j0QEBAQEBAQV1rc30vVUf4Vd0nS3p+WZ/kOtfX8IZo/41B6WP3grGTuSp4u/H1XtZZLfVnrXHx8Po3e+r2k34bMvXd+Pp+XA0L8ep/PPuOU+fuWQab3lVzVnyH+a73SsuOrZt0fn5u5bD55PtC9KqampuSmc8O23mwYXCxtbMKnmw3tfeGhptRjx04bO98P6Hypf7blF7Nk8v+rHtmHz/wCO1geMRVTDJAXFoOySWludgdx6wo70tWdpT48tckb1V/rV8Zi9F+dyt6Tuyztf34+iPaL1zIKuKaQkMYXEkC5zjc0ZDpIU2Ws2pMQrYbRTJFp8P4WP+8Ch8qX+25UvZsnk0/bMPn/yW3hemFLUSCGJzy917AsLRkLnM9S5thvWN5d01NLztVzdanikfpm/dSrvS9/0R673XqrjA/GYPTQ/etV2/cn6M3F34+qba08L+bqmjd8W/qzLCe247Qqult/qu67H0vCM6F4X+0VTGkXYz4x/U05DtNh3qfPfhoraXHx5Ijwh2davjEXoz75UWk7spdd34+jS1beOj0cn4LvU9z1c6L3vot0LPa0Mo9EBAQEBAQEEE1n4bNMafkYpJNnl9rZaXbN+Ste3PY9yt6W9axO8+X5Z+ux2tNeGPP8ACKYJgFW2ohc6mnDRJGSSwgABwuSp75KTWeariw3i8TMT9lyBZja8Vfay8LnmmiMMMjwGOBLWlwB2+Nlc014rWd5Z+tx2taJiP7vDi6KYHVR1kD308zWh2biwgNGyd5U2bJWaTG6DT4rxkiZifsterBLHAZktdlz5FZ1erWnopFujdZ9FqPUK1e1p5x92H2GT4Z+zPwbrPotR6hTtaecfc7DJ8M/Y+DlZ9FqPUKdrXzg7DJ5T9li6tqGWGnkbNG9hMhIa4FpI2Gi+fUqWotE2jbyaWjratJ4vNx9ZGFTzTxuhhleBHYlrS4A7bsrqTTXrWs7yh1mO1rRtCJfBus+iz+oVZ7WnnH3U+wyfDP2Pg3WfRZ/UKdrTzj7nYZPhn7O7oRgtTFWRvkgmY0B93OYQBdhAzUOa9Zx8pWNLivXJEzE/ZKtZFFLNTMbDG97hK0lrQXEDk5Bew6wq2mmIvzWtZWbY9ojxQPCNH6ts8LnU04AliJOwbACRpJPQrd8lZrMbwoY8OSLxynr5LbxbDmVEL4X3s8WuN4zuCL8QQFn1tNZ3hr3pFo2lztGtGY6IP2HPeX7N3OtcAcMhuzJUmXLbJMbo8Gnri6IvrIwqeaeN0MMrwI7EtaSAdsmyn0t6xWd5VNZjta0bR4NXQDB6iKrD5YJWN2Hjac0gXNrZrrUXrNNonxc6TFeuTeYnos8Ki02UeiAgICAgICAgICAg5+M4xDSs5SZwA4N3ueeZo4rqlJtO0I8mSuON7MYFi8dXEJo9xyLTvYeIKXpNJ2kx5IyV4odFcpBAQEBAQEBBoY1ikdLE6aU5DcBveeDW9JXVKTadocXvFK8UvLA8chq2bcLsx8phyczrH47l7kx2pO0ucWWuSN6uouEogICAgICAgICAgICAgICDBQVjrIwF7ZP2tpc5jrBwNzyJ3C3M0+wq7pskbcMsvWYZ34/BHdHMeko5dtmbTYPj4PH4OGdj0qbLii8fNXw5rYp4o8Vw4Pi0VTGJIXXHEbiw8zhwKzr1ms7S2MeSt43h0AuUggICAgFBo4pikVNGZZnBoHDeXHmaOJXVazadoR3vWkbyp7SXSCSsk2neCxt9iLyRznnJWjhxRjhj5s05Z3np4Q7mrnAXySiqcXNjZfZsSOVdzdLRnfnUWoyREcMLGkw2m3HK0mqi1GUBAQEBAQEBAQEBAQEBAQEGriU0TI3un2eTDTtbQuLWzBHG/MvaxMzyc24Yj9Sia58ZkeYWubGSdlhNy0cM1q1i0RHEwbTWb71feG4jLTv5SF7mO6NzhzOHEJetbRtL3He1J3hYGC6xI3WbVNLHfzG3cw9Y3j2qlfTTHdloY9bE99MaLFIZheKWN/muBPaN4Vea2jrC5W9bc4ltArx2XQa1ZiUMQvLKxg+s4D2cV7FZnpDib1jrKIY3rEibdtK0yO8twLWDsObvYrOPSzPenZUya2scq81e4pik1Q/lJ3lx4eS0czRuAVylIr3WdkyWvP6parTYgkXtw4HoXvXdzHWJXToni8NTA3kWhmwA10Iy5KwyA6OZZmWk1tzbWDJW9N6u4FGnZQEBAQEBAQEBAQEBAQEBBgoKv1l44ZJRSMPgR2L/AKz8iAeoW7T0K9pce0ccszW5d54IQ6kpnSvbFGLueQAOcn8OPYrNpisc/BRrWbWisLKrNXkLomNjc5krWgOk3tkIGZc3hnze1UY1NomZ8GnbQ0msRE8/3QvFtFKunuXROc3+ZH4Y7hmO1Wa56WUr6bLXwcUEg8QR2EfopuUoOcNyLF6los2oqAOYSvA+1czjr5O4y3jpaSTF6l2TqioI5jK8juukY6+EE5Lz1tP3aTnXOZJPTmSutohxvu7OFaLVdRbYic1vlv8AAb7cz2KK2aleqemnyX6Qn2j+gkMBEk3xsgzFxaNp6G8e1VMmotblHRoYtLSnOecoFpdgppahzAPi33dGeGyT8nrBy7lbw3467s/UYuzvt4eDy0axl1JO2UE7PyZG+UwnPtG8dS9yY+OvD4ucGXs7RK74XhzQ4G4IBB5wcwstuQ+0eiAgICAgICAgICAgICAgFB+f5i+WV2TnSPe47IBLi4nMAb1qxtWsPn53taY8d1oaD6J/sw5aa3LOGQ3iIHeBzu5yqOfNx8o6NXS6fs43t1S8BQLbGyg06zCYJfnYYn+cxpPfZdRa0dJcWx0t1hWusXDYKeSFsEbWbTXuda+ebQ3InK3hbudXdNe1oneWZrMdaWjhhxdFoY31cMcrQ5j3bJadxu029tlLmmYpMwgwRE5IiVx0WEU8XzUMTOkNAPesyb2nrLajHWOkN7ZXjssjxydI8Djq4jE/IjNj+LHfiOcLvFkmlt4R5sUZK7SpvF8LlpnmOdpB4H+F452nitKl4vHKWNkx2pO1oW5oHM59BAXb7Ob/AEtkc1vsAWfniIvOzW0tpnFEz/ebvqJYEBAQEBAQEBAQEBAQEBAQa0VDG1xe1jA529waA49ZXu8uYrETvENheOmUBBgoKy1rtPLQHgWPHc4X94K7pOksvX96vr+Ed0QYTW04H8wHuBJ+xTZvd2V9P72q7wstuMr0EGLIPGopGSDZkaxw5nNDh7V7E7dHM1ier1ijDQGtAAGQAFgB0BeOo5PpAQEBAQEBAQEBAQEBAQEBAQEBAQEEO1l4UZadsrBd0JJIG/YcBt27mnsVjT34bbeanrMXFTijwRzVjhTnzmpI8CNpAd5T3ZZc9htd4U2pvHDwwr6LHM245haYCotRlAQEBAQEBAQEBAQEBAQEBAQEBAQEBAQEBAQYcEHzHGG5AADmAsjzZ9o9EBAQEBAQEBAQEBAQEBAQEBAQEBAQEBAQEBAQEBAQEBAQEBAQEBAQEBAQEBAQEBAQEBAQEBAQEBAQEBAQEBAQEBAQEBAQEBAQEBAQEBAQEBAQEBAQEBAQEBAQEBAQEBAQEBAQEBAQEBAQEBAQEBAQEBAQEBAQEBAQEBAQEBAQEBAQf//Z;" vertex="1" parent="1">
          <mxGeometry x="260" y="726" width="225" height="225" as="geometry" />
        </mxCell>
        <mxCell id="wC8Sx5mPbXhXnmT8yc8--40" style="edgeStyle=orthogonalEdgeStyle;rounded=0;orthogonalLoop=1;jettySize=auto;html=1;" parent="1" source="wC8Sx5mPbXhXnmT8yc8--13" target="J4SpNiEphMcd3WOeLlQk-1" edge="1">
          <mxGeometry relative="1" as="geometry">
            <mxPoint x="760" y="424.9473684210525" as="targetPoint" />
          </mxGeometry>
        </mxCell>
        <mxCell id="wC8Sx5mPbXhXnmT8yc8--39" style="edgeStyle=orthogonalEdgeStyle;rounded=0;orthogonalLoop=1;jettySize=auto;html=1;entryX=0;entryY=0.5;entryDx=0;entryDy=0;" parent="1" source="wC8Sx5mPbXhXnmT8yc8--13" target="wC8Sx5mPbXhXnmT8yc8--35" edge="1">
          <mxGeometry relative="1" as="geometry">
            <Array as="points">
              <mxPoint x="680" y="500" />
              <mxPoint x="680" y="600" />
            </Array>
          </mxGeometry>
        </mxCell>
      </root>
    </mxGraphModel>
  </diagram>
</mxfile>
